<?xml version="1.0" encoding="UTF-8" standalone="no"?>
<!-- Created with Inkscape (http://www.inkscape.org/) -->

<svg
   width="13.124452mm"
   height="26.808977mm"
   viewBox="0 0 13.124453 26.808977"
   version="1.1"
   id="svg1"
   xml:space="preserve"
   inkscape:version="1.3.2 (091e20ef0f, 2023-11-25)"
   sodipodi:docname="gumdrop.svg"
   inkscape:export-filename="gumdrop-export.svg"
   inkscape:export-xdpi="96"
   inkscape:export-ydpi="96"
   xmlns:inkscape="http://www.inkscape.org/namespaces/inkscape"
   xmlns:sodipodi="http://sodipodi.sourceforge.net/DTD/sodipodi-0.dtd"
   xmlns="http://www.w3.org/2000/svg"
   xmlns:svg="http://www.w3.org/2000/svg"><sodipodi:namedview
     id="namedview1"
     pagecolor="#ffffff"
     bordercolor="#666666"
     borderopacity="1.0"
     inkscape:showpageshadow="2"
     inkscape:pageopacity="0.0"
     inkscape:pagecheckerboard="true"
     inkscape:deskcolor="#d1d1d1"
     inkscape:document-units="mm"
     inkscape:zoom="4"
     inkscape:cx="53.5"
     inkscape:cy="17.25"
     inkscape:window-width="1749"
     inkscape:window-height="1396"
     inkscape:window-x="540"
     inkscape:window-y="0"
     inkscape:window-maximized="1"
     inkscape:current-layer="layer1"
     inkscape:clip-to-page="false"
     inkscape:export-bgcolor="#ffffff00" /><defs
     id="defs1" /><g
     inkscape:label="Layer 1"
     inkscape:groupmode="layer"
     id="layer1"
     transform="translate(0.1114306,0.04961593)"><path
       style="fill:#000000;fill-opacity:1;fill-rule:nonzero;stroke:#000000;stroke-width:0;stroke-linecap:round;stroke-linejoin:round;stroke-dasharray:none;stroke-opacity:1"
       d="M 0.02425749,17.214417 C 0.07937833,15.632267 0.10022721,14.10583 0.14394429,13.666048 0.75392948,7.5297626 1.2013078,6.9196344 2.0720821,5.1085426 2.5844058,4.0178959 3.8871171,2.5631358 4.2692494,2.2215636 4.7925398,1.8348544 5.2593385,1.5523041 6.0946758,1.0909109 7.0692783,0.55259739 8.8979491,0.16903193 8.8979491,0.16903193 L 10.64494,2.4019864e-4 12.097838,-0.0486833 13.005561,-0.0551184 c 0.04165,17.1911874 -7.36e-4,10.2392514 -0.0073,26.5296374 -1.703096,0.0051 -7.5698789,8.2e-4 -9.3553624,-0.0052 -1.2072939,-0.0091 -2.80506032,-0.582827 -3.25765006,-1.916418 -0.24732555,-0.728764 -0.51812989,-1.32746 -0.49000724,-3.179504 -0.002404,-1.011159 0.12068462,-3.122775 0.12901619,-4.158996 z"
       id="path47912"
       sodipodi:nodetypes="csccsccccccsccc" /></g></svg>
