<?xml version="1.0" encoding="UTF-8" standalone="no"?>
<!-- Created with Inkscape (http://www.inkscape.org/) -->

<svg
   width="37.5mm"
   height="37.5mm"
   viewBox="0 0 37.5 37.5"
   version="1.1"
   id="svg1"
   sodipodi:docname="icicle-window.svg"
   inkscape:version="1.3.2 (091e20ef0f, 2023-11-25)"
   xmlns:inkscape="http://www.inkscape.org/namespaces/inkscape"
   xmlns:sodipodi="http://sodipodi.sourceforge.net/DTD/sodipodi-0.dtd"
   xmlns="http://www.w3.org/2000/svg"
   xmlns:svg="http://www.w3.org/2000/svg">
  <sodipodi:namedview
     id="namedview1"
     pagecolor="#ffffff"
     bordercolor="#666666"
     borderopacity="1.0"
     inkscape:showpageshadow="2"
     inkscape:pageopacity="0.0"
     inkscape:pagecheckerboard="0"
     inkscape:deskcolor="#d1d1d1"
     inkscape:document-units="mm"
     inkscape:zoom="4.7574603"
     inkscape:cx="63.479248"
     inkscape:cy="34.472174"
     inkscape:window-width="1300"
     inkscape:window-height="1396"
     inkscape:window-x="2136"
     inkscape:window-y="0"
     inkscape:window-maximized="1"
     inkscape:current-layer="layer1" />
  <defs
     id="defs1" />
  <g
     inkscape:label="Layer 1"
     inkscape:groupmode="layer"
     id="layer1">
    <path
       style="fill:#000000;fill-opacity:1;stroke:none;stroke-width:0.305904px;stroke-linecap:butt;stroke-linejoin:miter;stroke-opacity:1"
       d="M 37.409179,0.00417653 C 38.650136,0.84323863 39.096532,4.5972848 37.248691,4.5795576 34.532371,4.5534986 35.71777,7.1529513 34.503663,7.2850333 33.163147,7.2929003 34.293908,4.1628065 31.867605,4.212963 29.235128,4.0536064 30.812476,12.805296 29.198161,12.548738 27.017689,12.567275 28.005746,8.57787 26.66283,7.1088114 25.04621,5.1569869 23.458935,4.7139892 18.617418,4.6757155 13.936217,4.6387092 17.192525,17.948892 14.573248,17.896417 11.839747,17.961362 15.23104,5.5538931 10.436934,6.411108 6.9169422,6.396818 9.6311509,15.083861 6.9426159,14.760656 4.8537519,14.757056 7.9171252,3.0597195 -0.08756776,4.5551305 c -2.26628004,0.4233791 0.06768,-4.81691921 -0.0044,-4.55690227 z"
       id="path1"
       sodipodi:nodetypes="csccccscccscc" />
  </g>
</svg>
