<?xml version="1.0" standalone="no"?>
<!DOCTYPE svg PUBLIC "-//W3C//DTD SVG 20010904//EN"
 "http://www.w3.org/TR/2001/REC-SVG-20010904/DTD/svg10.dtd">
<svg version="1.0" xmlns="http://www.w3.org/2000/svg"
 width="1040.000000pt" height="925.000000pt" viewBox="0 0 1040.000000 925.000000"
 preserveAspectRatio="xMidYMid meet">
<metadata>
Created by potrace 1.16, written by Peter Selinger 2001-2019
</metadata>
<g transform="translate(0.000000,925.000000) scale(0.100000,-0.100000)"
fill="#000000" stroke="none">
<path d="M617 7116 c-96 -35 -136 -122 -106 -231 11 -41 75 -110 170 -187 26
-20 56 -57 68 -81 l21 -43 0 -1764 0 -1764 -21 -43 c-12 -24 -42 -61 -67 -81
-153 -123 -189 -178 -180 -271 6 -58 41 -111 91 -139 30 -16 82 -17 692 -17
610 0 662 1 692 17 50 28 85 81 91 139 9 93 -27 148 -180 271 -25 20 -55 57
-67 81 l-21 43 0 1764 0 1764 21 43 c12 24 42 61 68 81 101 81 159 145 171
192 24 91 -3 165 -78 212 l-37 23 -645 2 c-529 2 -652 0 -683 -11z"/>
<path d="M2787 7116 c-96 -35 -136 -122 -106 -231 11 -41 75 -110 170 -187 26
-20 56 -57 68 -81 l21 -43 0 -1764 0 -1764 -21 -43 c-12 -24 -42 -61 -67 -81
-153 -123 -189 -178 -180 -271 6 -58 41 -111 91 -139 30 -16 82 -17 692 -17
610 0 662 1 692 17 50 28 85 81 91 139 9 93 -27 148 -180 271 -25 20 -55 57
-67 81 l-21 43 0 1764 0 1764 21 43 c12 24 42 61 68 81 101 81 159 145 171
192 24 91 -3 165 -78 212 l-37 23 -645 2 c-529 2 -652 0 -683 -11z"/>
<path d="M4957 7116 c-96 -35 -136 -122 -106 -231 11 -41 75 -110 170 -187 26
-20 56 -57 68 -81 l21 -43 0 -1764 0 -1764 -21 -43 c-12 -24 -42 -61 -67 -81
-153 -123 -189 -178 -180 -271 6 -58 41 -111 91 -139 30 -16 82 -17 692 -17
610 0 662 1 692 17 50 28 85 81 91 139 9 93 -27 148 -180 271 -25 20 -55 57
-67 81 l-21 43 0 1764 0 1764 21 43 c12 24 42 61 68 81 101 81 159 145 171
192 24 91 -3 165 -78 212 l-37 23 -645 2 c-529 2 -652 0 -683 -11z"/>
</g>
</svg>
