<?xml version="1.0" standalone="no"?>
<!DOCTYPE svg PUBLIC "-//W3C//DTD SVG 20010904//EN"
 "http://www.w3.org/TR/2001/REC-SVG-20010904/DTD/svg10.dtd">
<svg version="1.0" xmlns="http://www.w3.org/2000/svg"
 width="1040.000000pt" height="925.000000pt" viewBox="0 0 1040.000000 925.000000"
 preserveAspectRatio="xMidYMid meet">
<metadata>
Created by potrace 1.16, written by Peter Selinger 2001-2019
</metadata>
<g transform="translate(0.000000,925.000000) scale(0.100000,-0.100000)"
fill="#000000" stroke="none">
<path d="M384 7106 c-81 -38 -119 -123 -95 -213 16 -58 49 -93 152 -164 100
-69 160 -131 202 -208 16 -29 372 -918 792 -1977 439 -1107 775 -1940 790
-1959 14 -19 47 -47 73 -62 46 -28 49 -28 244 -31 222 -4 276 5 338 57 20 16
47 51 62 77 14 27 369 900 788 1939 419 1040 778 1920 796 1956 43 82 95 133
215 212 70 46 100 73 117 104 56 102 32 208 -56 261 l-47 27 -387 3 c-259 2
-401 -1 -428 -8 -88 -24 -150 -117 -133 -202 13 -71 47 -110 148 -173 117 -73
155 -132 140 -214 -7 -36 -1211 -3110 -1224 -3123 -6 -7 -1109 2999 -1138
3105 -11 37 -13 70 -8 103 6 45 14 56 100 139 120 117 141 179 93 275 -18 35
-35 51 -77 73 l-55 27 -675 0 -676 0 -51 -24z"/>
<path d="M5377 7116 c-96 -35 -136 -122 -106 -231 11 -41 75 -110 170 -187 26
-20 56 -57 68 -81 l21 -43 0 -1764 0 -1764 -21 -43 c-12 -24 -42 -61 -67 -81
-153 -123 -189 -178 -180 -271 6 -58 41 -111 91 -139 30 -16 82 -17 692 -17
610 0 662 1 692 17 50 28 85 81 91 139 9 93 -27 148 -180 271 -25 20 -55 57
-67 81 l-21 43 0 1764 0 1764 21 43 c12 24 42 61 68 81 101 81 159 145 171
192 24 91 -3 165 -78 212 l-37 23 -645 2 c-529 2 -652 0 -683 -11z"/>
</g>
</svg>
