<?xml version="1.0" standalone="no"?>
<!DOCTYPE svg PUBLIC "-//W3C//DTD SVG 20010904//EN"
 "http://www.w3.org/TR/2001/REC-SVG-20010904/DTD/svg10.dtd">
<svg version="1.0" xmlns="http://www.w3.org/2000/svg"
 width="1040.000000pt" height="925.000000pt" viewBox="0 0 1040.000000 925.000000"
 preserveAspectRatio="xMidYMid meet">
<metadata>
Created by potrace 1.16, written by Peter Selinger 2001-2019
</metadata>
<g transform="translate(0.000000,925.000000) scale(0.100000,-0.100000)"
fill="#000000" stroke="none">
<path d="M537 7115 c-74 -26 -117 -87 -117 -165 0 -85 37 -133 179 -230 48
-32 112 -84 142 -114 34 -34 281 -382 674 -952 341 -493 626 -907 634 -919 13
-20 -23 -69 -648 -867 -363 -466 -682 -865 -708 -888 -27 -23 -89 -64 -139
-91 -50 -27 -107 -65 -127 -84 -84 -81 -72 -218 24 -282 l43 -28 410 0 411 0
45 25 c60 34 93 96 86 162 -7 69 -28 101 -107 164 -97 79 -119 130 -85 196 18
33 1027 1338 1035 1338 7 -1 890 -1280 912 -1324 17 -31 22 -60 20 -103 -1
-13 -29 -54 -66 -94 -85 -92 -99 -120 -99 -191 1 -69 28 -115 89 -150 l40 -23
696 0 695 0 42 27 c54 36 76 79 76 149 1 90 -34 136 -174 232 -63 43 -138 101
-166 130 -42 42 -1325 1893 -1341 1934 -6 15 1169 1547 1251 1631 37 38 105
91 173 133 160 100 194 146 180 250 -7 52 -28 83 -79 117 l-42 27 -383 3
c-250 2 -396 -1 -422 -8 -153 -41 -178 -235 -43 -334 99 -73 129 -122 112
-184 -11 -39 -961 -1287 -980 -1287 -14 0 -867 1241 -881 1282 -19 58 -4 97
65 171 77 81 96 117 96 177 0 86 -49 153 -128 175 -24 6 -272 10 -697 10 -533
-1 -667 -4 -698 -15z"/>
<path d="M5287 7116 c-96 -35 -136 -122 -106 -231 11 -41 75 -110 170 -187 26
-20 56 -57 68 -81 l21 -43 0 -1764 0 -1764 -21 -43 c-12 -24 -42 -61 -67 -81
-153 -123 -189 -178 -180 -271 6 -58 41 -111 91 -139 30 -16 82 -17 692 -17
610 0 662 1 692 17 50 28 85 81 91 139 9 93 -27 148 -180 271 -25 20 -55 57
-67 81 l-21 43 0 1764 0 1764 21 43 c12 24 42 61 68 81 101 81 159 145 171
192 24 91 -3 165 -78 212 l-37 23 -645 2 c-529 2 -652 0 -683 -11z"/>
<path d="M7457 7116 c-96 -35 -136 -122 -106 -231 11 -41 75 -110 170 -187 26
-20 56 -57 68 -81 l21 -43 0 -1764 0 -1764 -21 -43 c-12 -24 -42 -61 -67 -81
-153 -123 -189 -178 -180 -271 6 -58 41 -111 91 -139 30 -16 82 -17 692 -17
610 0 662 1 692 17 50 28 85 81 91 139 9 93 -27 148 -180 271 -25 20 -55 57
-67 81 l-21 43 0 1764 0 1764 21 43 c12 24 42 61 68 81 101 81 159 145 171
192 24 91 -3 165 -78 212 l-37 23 -645 2 c-529 2 -652 0 -683 -11z"/>
</g>
</svg>
